<svg id="Layer_1" data-name="Layer 1" xmlns="http://www.w3.org/2000/svg" viewBox="0 0 102.91414 54.60231"><defs><style>.cls-1{fill:#d7e2ec;}.cls-1,.cls-2,.cls-3,.cls-4{stroke:#11304f;stroke-miterlimit:10;stroke-width:0.25px;}.cls-2{fill:#9eb0c6;}.cls-3{fill:#6b8c82;}.cls-4{fill:#4d6f8c;}</style></defs><rect class="cls-1" x="16.42834" y="8.61337" width="86.36079" height="45.86394" rx="5.17271"/><path class="cls-2" d="M50.95882,24.911a12.739,12.739,0,0,1,8.99219,3.5752q3.82251,3.57569,3.82276,9.73486a14.258,14.258,0,0,1-3.76758,10.20264,12.00712,12.00712,0,0,1-9.04737,3.9873,9.44419,9.44419,0,0,1-7.20507-2.915v1.21045q0,1.21-1.26514,1.21l-7.09521-.05518q-1.155,0-1.15479-.93506v-.165q0-.54931,1.07227-1.73242a3.68267,3.68267,0,0,0,1.07275-2.50244V19.57608a3.31457,3.31457,0,0,0-1.26514-2.50244q-1.26562-1.12646-1.26465-1.67724v-.165q0-.76979,1.26465-1.32032l7.09522-3.2998a1.82945,1.82945,0,0,1,1.62256-.19238,1.26015,1.26015,0,0,1,.6875,1.29248v15.3999A9.0744,9.0744,0,0,1,50.95882,24.911ZM50.13363,50.0463A4.69047,4.69047,0,0,0,54.286,47.8461a11.44821,11.44821,0,0,0,1.45752-6.3247,29.79535,29.79535,0,0,0-.74218-6.76514,14.2507,14.2507,0,0,0-2.3379-5.335,4.56344,4.56344,0,0,0-3.68457-2.145,3.95761,3.95761,0,0,0-3.19043,1.54,6.11926,6.11926,0,0,0-1.26464,4.01514V42.786a7.98281,7.98281,0,0,0,1.73242,5.03272A4.91621,4.91621,0,0,0,50.13363,50.0463Z"/><circle class="cls-3" cx="15.36555" cy="15.36555" r="15.24055"/><path class="cls-4" d="M21.315,51.86124q-1.21069,0-1.21-.93506v-.165q0-.54931,1.10009-1.73242a3.58462,3.58462,0,0,0,1.09961-2.44726V16.38614h-4.3999a2.82084,2.82084,0,0,0-2.08984.99024,7.52324,7.52324,0,0,0-1.45752,2.1997,11.65649,11.65649,0,0,1-1.2378,2.2002A1.91581,1.91581,0,0,1,11.69,22.766h-.77q-1.43116,0-1.15528-1.42969l.99024-6.98487a1.60134,1.60134,0,0,1,1.75976-1.54H40.39994a1.60238,1.60238,0,0,1,1.75976,1.54L43.315,21.391a1.21227,1.21227,0,0,1-.19239,1.01757,1.12112,1.12112,0,0,1-.90771.35743h-.8252a1.98489,1.98489,0,0,1-1.45752-.98975,11.75236,11.75236,0,0,1-1.29248-2.2002,7.74087,7.74087,0,0,0-1.5122-2.1997,2.90841,2.90841,0,0,0-2.11768-.99024H30.55472V46.58146A3.50659,3.50659,0,0,0,31.71,49.02872q1.155,1.18359,1.15478,1.73242v.165q0,.936-1.26514.93506Z"/><path class="cls-3" d="M72.60572,47.18961h8.208v5.20508H67.00026V24.92789h5.60546Z"/><path class="cls-3" d="M92.04469,36.73941h8.26807V48.95133a7.73141,7.73141,0,0,1-3.45313,2.88281,12.12771,12.12771,0,0,1-5.11523,1.061A9.32476,9.32476,0,0,1,85.218,50.673a7.64536,7.64536,0,0,1-2.44238-5.9458V32.59537a7.55636,7.55636,0,0,1,2.50244-5.9458,9.64,9.64,0,0,1,6.64648-2.22217,15.9323,15.9323,0,0,1,6.84668,1.56153v5.125a12.8669,12.8669,0,0,0-5.90576-1.48145,4.95954,4.95954,0,0,0-3.26318.981A3.21389,3.21389,0,0,0,88.42115,33.216V44.527a2.98434,2.98434,0,0,0,.91114,2.29248,3.44645,3.44645,0,0,0,2.45214.85059,4.48135,4.48135,0,0,0,2.88282-.94092V41.444H92.04469Z"/></svg>